<svg xmlns="http://www.w3.org/2000/svg" width="640" height="180" viewBox="0 0 640 180" fill="none">
  <defs>
    <linearGradient id="g" x1="0" y1="0" x2="640" y2="180" gradientUnits="userSpaceOnUse">
      <stop stop-color="#6f2f49"/>
      <stop offset="1" stop-color="#a85372"/>
    </linearGradient>
    <filter id="s" x="-20%" y="-60%" width="140%" height="220%">
      <feDropShadow dx="0" dy="6" stdDeviation="6" flood-color="#000" flood-opacity="0.18" />
    </filter>
  </defs>
  <g filter="url(#s)">
    <path d="M70 120c22-36 48-54 78-54 40 0 62 28 92 28 26 0 45-11 66-28 19-15 40-24 64-24 45 0 76 32 104 32 22 0 44-10 66-26 20-15 44-26 80-26v42c-28 0-48 10-66 24-22 17-48 28-80 28-42 0-74-32-104-32-20 0-37 7-52 19-24 19-50 33-78 33-40 0-62-28-92-28-18 0-34 10-52 28z" fill="url(#g)" opacity="0.15"/>
    <circle cx="110" cy="72" r="18" fill="#6f2f49" opacity="0.25"/>
    <circle cx="530" cy="64" r="14" fill="#a85372" opacity="0.25"/>
  </g>

  <g>
    <path d="M52 138h536" stroke="#e7e1e4" stroke-width="3" stroke-linecap="round"/>
    <path d="M72 98c20-30 40-45 64-45 34 0 50 22 78 22 20 0 36-8 52-20 16-12 34-19 54-19 40 0 62 30 88 30 18 0 34-8 50-19 16-12 36-21 68-21" stroke="#6f2f49" stroke-width="4" stroke-linecap="round" opacity="0.85"/>
    <text x="70" y="135" font-family="ui-serif, Georgia, serif" font-size="38" fill="#2a2326" letter-spacing="0.5">Vinícola</text>
    <text x="210" y="135" font-family="ui-serif, Georgia, serif" font-size="44" fill="#6f2f49" font-weight="700" letter-spacing="0.8">Serra Dourada</text>
    <path id="gold-accent" d="M210 148h300" stroke="#f7c948" stroke-width="4" stroke-linecap="round" opacity="0.9"/>
</g>
</svg>
